<svg width="100" height="100" viewBox="0 0 100 100" xmlns="http://www.w3.org/2000/svg">
  <!-- Background circle -->
  <circle cx="50" cy="50" r="45" fill="#4A90E2" stroke="#2C5AA0" stroke-width="2"/>
  
  <!-- Sun -->
  <circle cx="35" cy="35" r="8" fill="#FFD700"/>
  
  <!-- Sun rays -->
  <g stroke="#FFD700" stroke-width="2" stroke-linecap="round">
    <line x1="35" y1="22" x2="35" y2="18"/>
    <line x1="35" y1="48" x2="35" y2="52"/>
    <line x1="22" y1="35" x2="18" y2="35"/>
    <line x1="48" y1="35" x2="52" y2="35"/>
    <line x1="26.5" y1="26.5" x2="23.5" y2="23.5"/>
    <line x1="43.5" y1="43.5" x2="46.5" y2="46.5"/>
    <line x1="43.5" y1="26.5" x2="46.5" y2="23.5"/>
    <line x1="26.5" y1="43.5" x2="23.5" y2="46.5"/>
  </g>
  
  <!-- Cloud -->
  <g fill="white" opacity="0.9">
    <circle cx="55" cy="45" r="12"/>
    <circle cx="45" cy="50" r="10"/>
    <circle cx="65" cy="50" r="10"/>
    <circle cx="55" cy="55" r="8"/>
  </g>
  
  <!-- Rain drops -->
  <g fill="#4A90E2" opacity="0.8">
    <ellipse cx="48" cy="65" rx="2" ry="4"/>
    <ellipse cx="55" cy="68" rx="2" ry="4"/>
    <ellipse cx="62" cy="65" rx="2" ry="4"/>
  </g>
  
  <!-- AI brain icon in corner -->
  <g fill="white" opacity="0.7" transform="translate(70, 70) scale(0.6)">
    <path d="M15 12c0-1.1-.9-2-2-2s-2 .9-2 2 .9 2 2 2 .9-2 2-2zm-4 8c0-1.1-.9-2-2-2s-2 .9-2 2 .9 2 2 2 .9-2 2-2zm8-8c0-1.1-.9-2-2-2s-2 .9-2 2 .9 2 2 2 .9-2 2-2zm0 8c0-1.1-.9-2-2-2s-2 .9-2 2 .9 2 2 2 .9-2 2-2z"/>
    <path d="M13 16c-1.1 0-2-.9-2-2s.9-2 2-2 2 .9 2 2-.9 2-2 2zm-6 0c-1.1 0-2-.9-2-2s.9-2 2-2 2 .9 2 2-.9 2-2 2z"/>
  </g>
</svg>
